<svg version="1.1" viewBox="0.0 0.0 1632.6929133858268 565.3858267716536" fill="none" stroke="none" stroke-linecap="square" stroke-miterlimit="10" xmlns:xlink="http://www.w3.org/1999/xlink" xmlns="http://www.w3.org/2000/svg"><clipPath id="p.0"><path d="m0 0l1632.6929 0l0 565.3858l-1632.6929 0l0 -565.3858z" clip-rule="nonzero"/></clipPath><g clip-path="url(#p.0)"><path fill="#ffffff" d="m0 0l1632.6929 0l0 565.3858l-1632.6929 0z" fill-rule="evenodd"/><path fill="#000000" fill-opacity="0.0" d="m1054.8031 218.64699l0 21.13385l-91.433044 0l0 -21.13385z" fill-rule="evenodd"/><path fill="#000000" fill-opacity="0.0" d="m1054.8031 239.78084l0 21.133865l-91.433044 0l0 -21.133865z" fill-rule="evenodd"/><path fill="#000000" fill-opacity="0.0" d="m1054.8031 260.9147l0 21.13385l-91.433044 0l0 -21.13385z" fill-rule="evenodd"/><path fill="#000000" fill-opacity="0.0" d="m1054.8031 282.04855l0 21.13385l-91.433044 0l0 -21.13385z" fill-rule="evenodd"/><path fill="#000000" fill-opacity="0.0" d="m1054.8031 303.1824l0 21.13388l-91.433044 0l0 -21.13388z" fill-rule="evenodd"/><path fill="#000000" fill-opacity="0.0" d="m1054.8031 324.31628l0 21.13385l-91.433044 0l0 -21.13385z" fill-rule="evenodd"/><path fill="#000000" fill-opacity="0.0" d="m1009.0866 218.64699l45.700745 10.582672" fill-rule="evenodd"/><path stroke="#000000" stroke-width="4.0" stroke-linejoin="round" stroke-linecap="butt" d="m1009.0866 218.64699l45.700745 10.582672" fill-rule="evenodd"/><path fill="#000000" fill-opacity="0.0" d="m1054.8031 229.21391l-91.433044 21.13385" fill-rule="evenodd"/><path stroke="#000000" stroke-width="4.0" stroke-linejoin="round" stroke-linecap="butt" d="m1054.8031 229.21391l-91.433044 21.13385" fill-rule="evenodd"/><path fill="#000000" fill-opacity="0.0" d="m963.37006 250.34776l91.433044 21.133865" fill-rule="evenodd"/><path stroke="#000000" stroke-width="4.0" stroke-linejoin="round" stroke-linecap="butt" d="m963.37006 250.34776l91.433044 21.133865" fill-rule="evenodd"/><path fill="#000000" fill-opacity="0.0" d="m1054.8031 271.48163l-91.433044 21.13385" fill-rule="evenodd"/><path stroke="#000000" stroke-width="4.0" stroke-linejoin="round" stroke-linecap="butt" d="m1054.8031 271.48163l-91.433044 21.13385" fill-rule="evenodd"/><path fill="#000000" fill-opacity="0.0" d="m963.37006 292.61548l91.433044 21.13385" fill-rule="evenodd"/><path stroke="#000000" stroke-width="4.0" stroke-linejoin="round" stroke-linecap="butt" d="m963.37006 292.61548l91.433044 21.13385" fill-rule="evenodd"/><path fill="#000000" fill-opacity="0.0" d="m1054.8031 313.74933l-91.433044 21.13388" fill-rule="evenodd"/><path stroke="#000000" stroke-width="4.0" stroke-linejoin="round" stroke-linecap="butt" d="m1054.8031 313.74933l-91.433044 21.13388" fill-rule="evenodd"/><path fill="#000000" fill-opacity="0.0" d="m963.37006 334.8832l45.700806 10.582672" fill-rule="evenodd"/><path stroke="#000000" stroke-width="4.0" stroke-linejoin="round" stroke-linecap="butt" d="m963.37006 334.8832l45.700806 10.582672" fill-rule="evenodd"/><path fill="#000000" fill-opacity="0.0" d="m309.16537 194.75066l139.37009 0l0 174.61418l-139.37009 0z" fill-rule="evenodd"/><path fill="#000000" d="m318.57718 258.75064l0 -47.718735l20.28125 0q7.65625 0 11.109375 1.296875q3.46875 1.28125 5.546875 4.578125q2.09375 3.28125 2.09375 7.5q0 5.375 -3.15625 8.875q-3.15625 3.5 -9.4375 4.40625q3.125 1.828125 5.15625 4.015625q2.03125 2.171875 5.484375 7.734375l5.828125 9.312485l-11.53125 0l-6.953125 -10.374985q-3.71875 -5.578125 -5.09375 -7.015625q-1.359375 -1.453125 -2.890625 -1.984375q-1.53125 -0.546875 -4.84375 -0.546875l-1.953125 0l0 19.92186l-9.640625 0zm9.640625 -27.531235l7.125 0q6.9375 0 8.65625 -0.578125q1.734375 -0.59375 2.703125 -2.03125q0.984375 -1.4375 0.984375 -3.578125q0 -2.40625 -1.296875 -3.890625q-1.28125 -1.484375 -3.625 -1.875q-1.171875 -0.15625 -7.03125 -0.15625l-7.515625 0l0 12.109375z" fill-rule="nonzero"/><path fill="#000000" d="m379.32358 283.75067l-6.09375 0l0 -22.984375q-3.34375 3.125 -7.875 4.625l0 -5.53125q2.390625 -0.78125 5.1875 -2.953125q2.796875 -2.1875153 3.84375 -5.0937653l4.9375 0l0 31.937515z" fill-rule="nonzero"/><path fill="#000000" d="m407.83807 232.18816l0 -8.390625l33.359375 0l0 8.390625l-33.359375 0zm0 14.453125l0 -8.421875l33.359375 0l0 8.421875l-33.359375 0z" fill-rule="nonzero"/><path fill="#000000" d="m346.2227 338.75064l0 -9.59375l-19.53125 0l0 -8.015625l20.703125 -30.296875l7.6875 0l0 30.265625l5.921875 0l0 8.046875l-5.921875 0l0 9.59375l-8.859375 0zm0 -17.640625l0 -16.3125l-10.96875 16.3125l10.96875 0zm49.855896 10.9375q-3.765625 -1.59375 -6.015625 -3.640625q-3.28125 -2.9375 -4.90625 -7.03125q-1.609375 -4.109375 -1.609375 -9.015625q0 -10.09375 6.234375 -16.3125q6.234375 -6.21875 16.546875 -6.21875q7.59375 0 12.6875 2.578125q5.09375 2.5625 8.125 7.953125q3.046875 5.390625 3.046875 11.9375q0 6.5625 -3.046875 11.734375q-3.03125 5.15625 -9.375 7.953125l10.734375 -0.75l2.34375 0l0 7.515625l-20.890625 0l0 -7.90625q3.15625 -1.53125 4.96875 -3.421875q2.484375 -2.609375 3.734375 -6.328125q1.25 -3.734375 1.25 -7.859375q0 -8.046875 -3.734375 -12.15625q-3.71875 -4.125 -9.515625 -4.125q-5.53125 0 -9.265625 4.21875q-3.71875 4.21875 -3.71875 11.90625q0 4.421875 1.40625 8.234375q1.421875 3.796875 4.0625 6.4375q1.6875 1.6875 4.6875 3.09375l0 7.90625l-20.984375 0l0 -7.484375l3.1875 0l10.046875 0.78125z" fill-rule="nonzero"/><path fill="#000000" d="m7.2401576 261.5866l0 15.653534l156.85039 0l0 -15.653534z" fill-rule="evenodd"/><path fill="#000000" d="m37.699474 293.39764l0 9.13385l91.433075 0l0 -9.13385z" fill-rule="evenodd"/><path fill="#000000" fill-opacity="0.0" d="m37.700607 228.6063l0 32.97638l41.32283 0l0 -32.97638z" fill-rule="evenodd"/><path fill="#000000" d="m66.92452 247.20103l-6.203121 0l0 6.234375l-4.265625 0l0 -6.234375l-6.203125 0l0 -4.171875l6.203125 0l0 -6.265625l4.265625 0l0 6.265625l6.203121 0l0 4.171875z" fill-rule="nonzero"/><path fill="#000000" fill-opacity="0.0" d="m37.700768 302.5328l0 32.97638l36.62992 0l0 -32.97638z" fill-rule="evenodd"/><path fill="#000000" d="m61.656353 322.69525l-4.578125 0l0 -8.984375l4.578125 0l0 8.984375z" fill-rule="nonzero"/><path fill="#000000" fill-opacity="0.0" d="m109.16535 170.82152l0 -111.21259" fill-rule="evenodd"/><path stroke="#ff9900" stroke-width="4.0" stroke-linejoin="round" stroke-linecap="butt" d="m109.16535 170.82152l0 -87.21259" fill-rule="evenodd"/><path fill="#ff9900" stroke="#ff9900" stroke-width="4.0" stroke-linecap="butt" d="m115.772285 83.608925l-6.6069336 -18.15239l-6.606926 18.15239z" fill-rule="evenodd"/><path fill="#000000" fill-opacity="0.0" d="m123.576675 82.44357l91.433075 0l0 61.228348l-91.433075 0z" fill-rule="evenodd"/><path fill="#ff9900" d="m162.34608 137.05774l9.984375 -47.718742l9.796875 0l-9.953125 47.718742l-9.828125 0z" fill-rule="nonzero"/><path fill="#000000" fill-opacity="0.0" d="m1625.4501 212.1378l0 21.13385l-91.43298 0l0 -21.13385z" fill-rule="evenodd"/><path fill="#000000" fill-opacity="0.0" d="m1625.4501 233.27165l0 21.133865l-91.43298 0l0 -21.133865z" fill-rule="evenodd"/><path fill="#000000" fill-opacity="0.0" d="m1625.4501 254.40552l0 21.13385l-91.43298 0l0 -21.13385z" fill-rule="evenodd"/><path fill="#000000" fill-opacity="0.0" d="m1625.4501 275.53937l0 21.13385l-91.43298 0l0 -21.13385z" fill-rule="evenodd"/><path fill="#000000" fill-opacity="0.0" d="m1625.4501 296.67322l0 21.13388l-91.43298 0l0 -21.13388z" fill-rule="evenodd"/><path fill="#000000" fill-opacity="0.0" d="m1625.4501 317.8071l0 21.13385l-91.43298 0l0 -21.13385z" fill-rule="evenodd"/><path fill="#000000" fill-opacity="0.0" d="m1579.7336 212.1378l45.700684 10.582672" fill-rule="evenodd"/><path stroke="#000000" stroke-width="4.0" stroke-linejoin="round" stroke-linecap="butt" d="m1579.7336 212.1378l45.700684 10.582672" fill-rule="evenodd"/><path fill="#000000" fill-opacity="0.0" d="m1625.4501 222.70473l-91.43298 21.13385" fill-rule="evenodd"/><path stroke="#000000" stroke-width="4.0" stroke-linejoin="round" stroke-linecap="butt" d="m1625.4501 222.70473l-91.43298 21.13385" fill-rule="evenodd"/><path fill="#000000" fill-opacity="0.0" d="m1534.0171 243.83858l91.43298 21.133865" fill-rule="evenodd"/><path stroke="#000000" stroke-width="4.0" stroke-linejoin="round" stroke-linecap="butt" d="m1534.0171 243.83858l91.43298 21.133865" fill-rule="evenodd"/><path fill="#000000" fill-opacity="0.0" d="m1625.4501 264.97244l-91.43298 21.13385" fill-rule="evenodd"/><path stroke="#000000" stroke-width="4.0" stroke-linejoin="round" stroke-linecap="butt" d="m1625.4501 264.97244l-91.43298 21.13385" fill-rule="evenodd"/><path fill="#000000" fill-opacity="0.0" d="m1534.0171 286.1063l91.43298 21.13385" fill-rule="evenodd"/><path stroke="#000000" stroke-width="4.0" stroke-linejoin="round" stroke-linecap="butt" d="m1534.0171 286.1063l91.43298 21.13385" fill-rule="evenodd"/><path fill="#000000" fill-opacity="0.0" d="m1625.4501 307.24014l-91.43298 21.13388" fill-rule="evenodd"/><path stroke="#000000" stroke-width="4.0" stroke-linejoin="round" stroke-linecap="butt" d="m1625.4501 307.24014l-91.43298 21.13388" fill-rule="evenodd"/><path fill="#000000" fill-opacity="0.0" d="m1534.0171 328.37402l45.700806 10.582672" fill-rule="evenodd"/><path stroke="#000000" stroke-width="4.0" stroke-linejoin="round" stroke-linecap="butt" d="m1534.0171 328.37402l45.700806 10.582672" fill-rule="evenodd"/><path fill="#000000" fill-opacity="0.0" d="m539.9593 213.93964l0 21.13385l-91.433044 0l0 -21.13385z" fill-rule="evenodd"/><path fill="#000000" fill-opacity="0.0" d="m539.9593 235.07349l0 21.13385l-91.433044 0l0 -21.13385z" fill-rule="evenodd"/><path fill="#000000" fill-opacity="0.0" d="m539.9593 256.20734l0 21.13388l-91.433044 0l0 -21.13388z" fill-rule="evenodd"/><path fill="#000000" fill-opacity="0.0" d="m539.9593 277.34122l0 21.13385l-91.433044 0l0 -21.13385z" fill-rule="evenodd"/><path fill="#000000" fill-opacity="0.0" d="m539.9593 298.47507l0 21.13385l-91.433044 0l0 -21.13385z" fill-rule="evenodd"/><path fill="#000000" fill-opacity="0.0" d="m539.9593 319.60892l0 21.13385l-91.433044 0l0 -21.13385z" fill-rule="evenodd"/><path fill="#000000" fill-opacity="0.0" d="m494.24277 213.93964l45.700775 10.582672" fill-rule="evenodd"/><path stroke="#000000" stroke-width="4.0" stroke-linejoin="round" stroke-linecap="butt" d="m494.24277 213.93964l45.700775 10.582672" fill-rule="evenodd"/><path fill="#000000" fill-opacity="0.0" d="m539.9593 224.50656l-91.433044 21.133865" fill-rule="evenodd"/><path stroke="#000000" stroke-width="4.0" stroke-linejoin="round" stroke-linecap="butt" d="m539.9593 224.50656l-91.433044 21.133865" fill-rule="evenodd"/><path fill="#000000" fill-opacity="0.0" d="m448.52625 245.64043l91.433044 21.133865" fill-rule="evenodd"/><path stroke="#000000" stroke-width="4.0" stroke-linejoin="round" stroke-linecap="butt" d="m448.52625 245.64043l91.433044 21.133865" fill-rule="evenodd"/><path fill="#000000" fill-opacity="0.0" d="m539.9593 266.7743l-91.433044 21.13385" fill-rule="evenodd"/><path stroke="#000000" stroke-width="4.0" stroke-linejoin="round" stroke-linecap="butt" d="m539.9593 266.7743l-91.433044 21.13385" fill-rule="evenodd"/><path fill="#000000" fill-opacity="0.0" d="m448.52625 287.90814l91.433044 21.13385" fill-rule="evenodd"/><path stroke="#000000" stroke-width="4.0" stroke-linejoin="round" stroke-linecap="butt" d="m448.52625 287.90814l91.433044 21.13385" fill-rule="evenodd"/><path fill="#000000" fill-opacity="0.0" d="m539.9593 309.042l-91.433044 21.13385" fill-rule="evenodd"/><path stroke="#000000" stroke-width="4.0" stroke-linejoin="round" stroke-linecap="butt" d="m539.9593 309.042l-91.433044 21.13385" fill-rule="evenodd"/><path fill="#000000" fill-opacity="0.0" d="m448.52625 330.17584l45.700775 10.582703" fill-rule="evenodd"/><path stroke="#000000" stroke-width="4.0" stroke-linejoin="round" stroke-linecap="butt" d="m448.52625 330.17584l45.700775 10.582703" fill-rule="evenodd"/><path fill="#000000" fill-opacity="0.0" d="m824.0 194.75066l139.37012 0l0 174.61418l-139.37012 0z" fill-rule="evenodd"/><path fill="#000000" d="m833.4118 258.75064l0 -47.718735l20.28125 0q7.65625 0 11.109375 1.296875q3.46875 1.28125 5.546875 4.578125q2.09375 3.28125 2.09375 7.5q0 5.375 -3.15625 8.875q-3.15625 3.5 -9.4375 4.40625q3.125 1.828125 5.15625 4.015625q2.03125 2.171875 5.484375 7.734375l5.828125 9.312485l-11.53125 0l-6.953125 -10.374985q-3.71875 -5.578125 -5.09375 -7.015625q-1.359375 -1.453125 -2.890625 -1.984375q-1.53125 -0.546875 -4.84375 -0.546875l-1.953125 0l0 19.92186l-9.640625 0zm9.640625 -27.531235l7.125 0q6.9375 0 8.65625 -0.578125q1.734375 -0.59375 2.703125 -2.03125q0.984375 -1.4375 0.984375 -3.578125q0 -2.40625 -1.296875 -3.890625q-1.28125 -1.484375 -3.625 -1.875q-1.171875 -0.15625 -7.03125 -0.15625l-7.515625 0l0 12.109375z" fill-rule="nonzero"/><path fill="#000000" d="m899.1582 278.09442l0 5.65625l-21.375 0q0.34375 -3.21875 2.078125 -6.09375q1.734375 -2.875 6.859375 -7.625q4.125 -3.828125 5.0625 -5.203125q1.25 -1.890625 1.25 -3.734375q0 -2.03125 -1.09375 -3.125q-1.09375 -1.109375 -3.03125 -1.109375q-1.90625 0 -3.03125 1.15625q-1.125 1.15625 -1.3125 3.8125l-6.0625 -0.59375q0.53125 -5.046875 3.390625 -7.2343903q2.875 -2.1875 7.171875 -2.1875q4.703125 0 7.390625 2.546875q2.703125 2.5312653 2.703125 6.2968903q0 2.15625 -0.78125 4.109375q-0.765625 1.9375 -2.4375 4.0625q-1.109375 1.40625 -4.0 4.0625q-2.875 2.640625 -3.65625 3.515625q-0.765625 0.859375 -1.234375 1.6875l12.109375 0z" fill-rule="nonzero"/><path fill="#000000" d="m922.6727 232.18816l0 -8.390625l33.359375 0l0 8.390625l-33.359375 0zm0 14.453125l0 -8.421875l33.359375 0l0 8.421875l-33.359375 0z" fill-rule="nonzero"/><path fill="#000000" d="m861.0573 338.75064l0 -9.59375l-19.53125 0l0 -8.015625l20.703125 -30.296875l7.6875 0l0 30.265625l5.921875 0l0 8.046875l-5.921875 0l0 9.59375l-8.859375 0zm0 -17.640625l0 -16.3125l-10.96875 16.3125l10.96875 0zm49.855896 10.9375q-3.765625 -1.59375 -6.015625 -3.640625q-3.28125 -2.9375 -4.90625 -7.03125q-1.609375 -4.109375 -1.609375 -9.015625q0 -10.09375 6.234375 -16.3125q6.234375 -6.21875 16.546875 -6.21875q7.59375 0 12.6875 2.578125q5.09375 2.5625 8.125 7.953125q3.046875 5.390625 3.046875 11.9375q0 6.5625 -3.046875 11.734375q-3.03125 5.15625 -9.375 7.953125l10.734375 -0.75l2.34375 0l0 7.515625l-20.890625 0l0 -7.90625q3.15625 -1.53125 4.96875 -3.421875q2.484375 -2.609375 3.734375 -6.328125q1.25 -3.734375 1.25 -7.859375q0 -8.046875 -3.734375 -12.15625q-3.71875 -4.125 -9.515625 -4.125q-5.53125 0 -9.265625 4.21875q-3.71875 4.21875 -3.71875 11.90625q0 4.421875 1.40625 8.234375q1.421875 3.796875 4.0625 6.4375q1.6875 1.6875 4.6875 3.09375l0 7.90625l-20.984375 0l0 -7.484375l3.1875 0l10.046875 0.78125z" fill-rule="nonzero"/><path fill="#000000" fill-opacity="0.0" d="m1367.0264 201.25853l166.99219 0l0 174.61418l-166.99219 0z" fill-rule="evenodd"/><path fill="#000000" d="m1390.2493 265.2585l0 -47.718735l20.28125 0q7.65625 0 11.109375 1.296875q3.46875 1.28125 5.546875 4.578125q2.09375 3.28125 2.09375 7.5q0 5.375 -3.15625 8.875q-3.15625 3.5 -9.4375 4.40625q3.125 1.828125 5.15625 4.015625q2.03125 2.171875 5.484375 7.734375l5.828125 9.312485l-11.53125 0l-6.953125 -10.374985q-3.71875 -5.578125 -5.09375 -7.015625q-1.359375 -1.453125 -2.890625 -1.984375q-1.53125 -0.546875 -4.84375 -0.546875l-1.953125 0l0 19.92186l-9.640625 0zm9.640625 -27.531235l7.125 0q6.9375 0 8.65625 -0.578125q1.734375 -0.59375 2.703125 -2.03125q0.984375 -1.4375 0.984375 -3.578125q0 -2.40625 -1.296875 -3.890625q-1.28125 -1.484375 -3.625 -1.875q-1.171875 -0.15625 -7.03125 -0.15625l-7.515625 0l0 12.109375z" fill-rule="nonzero"/><path fill="#000000" d="m1435.1831 281.82104l5.90625 -0.71875q0.28125 2.25 1.515625 3.453125q1.234375 1.1875 2.984375 1.1875q1.890625 0 3.1875 -1.421875q1.296875 -1.4375 1.296875 -3.875q0 -2.296875 -1.25 -3.640625q-1.234375 -1.34375 -3.015625 -1.34375q-1.171875 0 -2.796875 0.453125l0.671875 -4.96875q2.484375 0.0625 3.78125 -1.078125q1.296875 -1.140625 1.296875 -3.015625q0 -1.609375 -0.953125 -2.5625q-0.953125 -0.953125 -2.53125 -0.953125q-1.5625 0 -2.671875 1.09375q-1.109375 1.078125 -1.34375 3.15625l-5.625 -0.953125q0.59375 -2.890625 1.765625 -4.609375q1.1875 -1.734375 3.296875 -2.71875q2.125 -0.984375 4.75 -0.984375q4.484375 0 7.203125 2.859375q2.234375 2.34375 2.234375 5.296875q0 4.1875 -4.578125 6.6875q2.734375 0.578125 4.359375 2.625q1.640625 2.03125 1.640625 4.921875q0 4.1875 -3.0625 7.140625q-3.046875 2.953125 -7.609375 2.953125q-4.3125 0 -7.15625 -2.484375q-2.84375 -2.484375 -3.296875 -6.5z" fill-rule="nonzero"/><path fill="#000000" d="m1479.5101 238.69603l0 -8.390625l33.359375 0l0 8.390625l-33.359375 0zm0 14.453125l0 -8.421875l33.359375 0l0 8.421875l-33.359375 0z" fill-rule="nonzero"/><path fill="#000000" d="m1430.8479 336.7585l0 8.5l-32.0625 0q0.53125 -4.8125 3.125 -9.125q2.609375 -4.3125 10.28125 -11.4375q6.1875 -5.765625 7.59375 -7.8125q1.890625 -2.84375 1.890625 -5.609375q0 -3.046875 -1.65625 -4.6875q-1.640625 -1.65625 -4.53125 -1.65625q-2.859375 0 -4.5625 1.734375q-1.6875 1.71875 -1.953125 5.71875l-9.109375 -0.90625q0.8125 -7.546875 5.109375 -10.828125q4.296875 -3.296875 10.734375 -3.296875q7.0625 0 11.09375 3.8125q4.046875 3.796875 4.046875 9.46875q0 3.21875 -1.15625 6.140625q-1.15625 2.90625 -3.65625 6.09375q-1.671875 2.109375 -6.0 6.09375q-4.328125 3.96875 -5.484375 5.265625q-1.140625 1.296875 -1.859375 2.53125l18.15625 0zm36.90271 1.796875q-3.765625 -1.59375 -6.015625 -3.640625q-3.28125 -2.9375 -4.90625 -7.03125q-1.609375 -4.109375 -1.609375 -9.015625q0 -10.09375 6.234375 -16.3125q6.234375 -6.21875 16.546875 -6.21875q7.59375 0 12.6875 2.578125q5.09375 2.5625 8.125 7.953125q3.046875 5.390625 3.046875 11.9375q0 6.5625 -3.046875 11.734375q-3.03125 5.15625 -9.375 7.953125l10.734375 -0.75l2.34375 0l0 7.515625l-20.890625 0l0 -7.90625q3.15625 -1.53125 4.96875 -3.421875q2.484375 -2.609375 3.734375 -6.328125q1.25 -3.734375 1.25 -7.859375q0 -8.046875 -3.734375 -12.15625q-3.71875 -4.125 -9.515625 -4.125q-5.53125 0 -9.265625 4.21875q-3.71875 4.21875 -3.71875 11.90625q0 4.421875 1.40625 8.234375q1.421875 3.796875 4.0625 6.4375q1.6875 1.6875 4.6875 3.09375l0 7.90625l-20.984375 0l0 -7.484375l3.1875 0l10.046875 0.78125z" fill-rule="nonzero"/><path fill="#000000" fill-opacity="0.0" d="m83.41601 302.5315l0 247.99335l410.83466 0l0 -209.78864" fill-rule="evenodd"/><path stroke="#000000" stroke-width="4.0" stroke-linejoin="round" stroke-linecap="butt" d="m83.41601 302.5315l0 247.99335l410.83466 0l0 -209.78864" fill-rule="evenodd"/><path fill="#000000" fill-opacity="0.0" d="m83.41601 302.5315l0 246.80988l925.6693 0l0 -203.88074" fill-rule="evenodd"/><path stroke="#000000" stroke-width="4.0" stroke-linejoin="round" stroke-linecap="butt" d="m83.41601 302.5315l0 246.80988l925.6693 0l0 -203.88074" fill-rule="evenodd"/><path fill="#000000" fill-opacity="0.0" d="m83.41601 302.5315l0 248.01459l1496.315 0l0 -211.60513" fill-rule="evenodd"/><path stroke="#000000" stroke-width="4.0" stroke-linejoin="round" stroke-linecap="butt" d="m83.41601 302.5315l0 248.01459l1496.315 0l0 -211.60513" fill-rule="evenodd"/><path fill="#000000" fill-opacity="0.0" d="m85.66535 261.5866l0 -246.74663l1494.0787 0l0 197.29782" fill-rule="evenodd"/><path stroke="#000000" stroke-width="4.0" stroke-linejoin="round" stroke-linecap="butt" d="m85.66535 261.5866l0 -246.74663l1494.0787 0l0 197.29782" fill-rule="evenodd"/><path fill="#000000" fill-opacity="0.0" d="m85.66535 261.5866l0 -246.74678l923.4331 0l0 203.81766" fill-rule="evenodd"/><path stroke="#000000" stroke-width="4.0" stroke-linejoin="round" stroke-linecap="butt" d="m85.66535 261.5866l0 -246.74678l923.4331 0l0 203.81766" fill-rule="evenodd"/><path fill="#000000" fill-opacity="0.0" d="m85.66535 261.5866l0 -246.7467l408.56693 0l0 199.09317" fill-rule="evenodd"/><path stroke="#000000" stroke-width="4.0" stroke-linejoin="round" stroke-linecap="butt" d="m85.66535 261.5866l0 -246.7467l408.56693 0l0 199.09317" fill-rule="evenodd"/><path fill="#000000" fill-opacity="0.0" d="m95.28036 311.81628l166.99213 0l0 91.433044l-166.99213 0z" fill-rule="evenodd"/><path fill="#000000" d="m136.45055 381.5328l-9.140625 0l0 -34.46875q-5.015625 4.6875 -11.828125 6.9375l0 -8.296875q3.59375 -1.171875 7.78125 -4.4375q4.203125 -3.28125 5.765625 -7.640625l7.421875 0l0 47.90625zm29.13353 -47.90625q6.921875 0 10.828125 4.9375q4.65625 5.859375 4.65625 19.4375q0 13.546875 -4.6875 19.46875q-3.875 4.875 -10.796875 4.875q-6.96875 0 -11.234375 -5.34375q-4.265625 -5.359375 -4.265625 -19.09375q0 -13.484375 4.6875 -19.40625q3.875 -4.875 10.8125 -4.875zm0 7.578125q-1.671875 0 -2.96875 1.0625q-1.296875 1.0625 -2.015625 3.796875q-0.9375 3.546875 -0.9375 11.9375q0 8.390625 0.84375 11.53125q0.84375 3.140625 2.125 4.1875q1.28125 1.046875 2.953125 1.046875q1.65625 0 2.953125 -1.0625q1.3125 -1.0625 2.015625 -3.796875q0.953125 -3.515625 0.953125 -11.90625q0 -8.390625 -0.859375 -11.53125q-0.84375 -3.140625 -2.125 -4.203125q-1.28125 -1.0625 -2.9375 -1.0625zm54.30902 40.328125l-17.046875 -47.71875l10.453125 0l12.062485 35.3125l11.6875 -35.3125l10.21875 0l-17.078125 47.71875l-10.29686 0z" fill-rule="nonzero"/></g></svg>